<?xml version="1.0" standalone="no"?>
<!DOCTYPE svg PUBLIC "-//W3C//DTD SVG 20010904//EN"
 "http://www.w3.org/TR/2001/REC-SVG-20010904/DTD/svg10.dtd">
<svg version="1.0" xmlns="http://www.w3.org/2000/svg"
 width="800.000000pt" height="800.000000pt" viewBox="0 0 800.000000 800.000000"
 preserveAspectRatio="xMidYMid meet">
<metadata>
Created by potrace 1.11, written by Peter Selinger 2001-2013
</metadata>
<g transform="translate(0.000000,800.000000) scale(0.100000,-0.100000)"
fill="#000000" stroke="none">
<path d="M0 7576 l0 -423 25 5 c14 2 32 14 40 25 10 14 24 21 42 19 16 -1 35
3 43 8 13 8 13 11 -2 27 -12 11 -18 13 -18 5 0 -7 -4 -11 -9 -7 -6 3 -9 14 -8
25 1 13 5 16 13 9 8 -7 13 -3 17 13 6 23 1 38 -13 38 -5 0 -7 -7 -4 -15 4 -8
2 -15 -4 -15 -5 0 -9 10 -8 23 1 12 -2 25 -7 28 -13 9 2 69 18 76 8 2 11 11 8
19 -3 8 0 14 6 14 19 0 25 -30 11 -55 -7 -14 -9 -31 -5 -42 6 -14 10 -9 16 22
13 67 11 82 -13 88 -21 6 -21 7 -3 27 10 11 24 20 32 20 7 0 14 10 15 23 2 26
6 148 8 227 2 63 -8 148 -21 170 -5 9 -6 0 -2 -22 7 -45 -1 -47 -34 -11 -22
23 -34 54 -36 91 0 8 -18 12 -54 12 l-53 0 0 -424z"/>
<path d="M172 7980 c0 -14 2 -19 5 -12 2 6 2 18 0 25 -3 6 -5 1 -5 -13z"/>
<path d="M292 7983 c5 -25 28 -28 28 -4 0 12 -6 21 -16 21 -9 0 -14 -7 -12
-17z"/>
<path d="M494 7973 c16 -79 29 -211 32 -318 1 -66 3 -145 5 -175 3 -61 -8
-149 -21 -165 -5 -6 -10 -26 -12 -45 -2 -23 -10 -38 -25 -45 -21 -11 -20 -11
11 -33 34 -23 80 -29 91 -12 3 6 21 10 38 10 18 0 39 4 47 9 8 6 18 7 24 4 5
-4 59 -8 120 -9 202 -5 379 -15 389 -21 5 -3 7 0 5 8 -3 9 -21 14 -49 15 -104
1 -130 4 -124 14 7 11 83 13 174 4 61 -7 85 -23 34 -25 -28 0 -28 0 -5 -11 19
-10 25 -8 38 11 15 21 20 21 122 16 59 -4 211 -6 339 -6 148 1 234 -3 238 -10
4 -5 39 -9 83 -7 43 1 111 -2 152 -6 41 -5 129 -10 195 -11 155 -3 168 -4 135
-15 -20 -6 -14 -8 25 -8 38 0 44 2 25 8 -16 5 10 7 70 7 74 0 97 -3 106 -15
10 -14 13 -14 28 1 18 18 31 23 22 9 -3 -5 1 -9 9 -9 8 0 12 3 10 7 -3 4 75 8
172 9 97 1 180 4 185 7 5 3 94 7 198 8 170 2 187 1 168 -12 -19 -14 -19 -16
-4 -27 18 -13 12 -50 -7 -38 -6 4 -7 1 -1 -8 5 -8 9 -17 10 -21 1 -5 2 -9 4
-10 1 -2 3 -11 5 -21 2 -11 7 -22 11 -25 4 -4 4 2 0 12 -5 16 -4 17 9 6 8 -7
15 -16 15 -21 0 -5 8 -17 18 -27 9 -9 23 -37 31 -62 7 -25 17 -54 22 -65 23
-56 32 -126 37 -285 7 -304 4 -403 -13 -412 -8 -5 -15 -21 -15 -36 0 -23 -17
-109 -36 -187 -3 -11 -8 -38 -12 -60 l-7 -40 -60 -6 -60 -6 52 -1 c42 -2 53
-6 58 -22 5 -15 12 -19 26 -15 18 6 19 2 15 -52 -3 -32 -18 -291 -33 -576 -15
-284 -30 -522 -33 -527 -3 -6 -93 14 -217 47 l-211 56 -4 49 c-1 27 -1 51 1
53 2 3 5 24 7 47 2 24 7 84 11 133 9 96 6 138 -8 129 -13 -8 -11 41 3 72 10
22 10 28 0 32 -8 2 -12 26 -12 69 0 60 -5 76 -64 197 -75 154 -85 190 -59 204
16 10 16 12 1 29 -18 21 -26 62 -15 81 5 6 25 12 45 13 20 0 30 3 22 6 -8 3
-18 10 -21 16 -4 5 -47 10 -95 11 -72 1 -89 4 -89 16 0 18 86 26 115 10 15 -8
21 -6 28 6 12 21 51 24 80 7 30 -18 95 -14 124 9 13 10 16 16 7 12 -10 -3 -20
-1 -23 5 -6 9 28 8 91 -4 13 -2 26 1 29 7 4 6 2 8 -3 5 -6 -4 -16 0 -23 8 -7
8 -9 15 -4 16 5 0 -2 5 -15 10 -15 6 -21 14 -17 25 3 8 2 13 -3 9 -5 -3 -12 1
-14 7 -4 9 -6 9 -6 1 -1 -6 -10 -9 -21 -6 -11 3 -17 9 -14 14 3 5 11 6 17 3 7
-4 1 5 -12 19 -20 22 -27 24 -45 15 -11 -6 -27 -17 -34 -25 -18 -17 -31 -17
-38 2 -4 8 -10 12 -15 9 -5 -3 -9 4 -9 15 0 12 -7 21 -15 21 -18 0 -20 -16 -2
-23 7 -3 5 -6 -5 -6 -10 -1 -18 4 -18 9 0 19 -18 10 -23 -11 -3 -12 -10 -18
-15 -15 -20 12 -19 -20 2 -43 l21 -23 -25 7 c-14 4 -30 15 -37 24 -8 10 -12
12 -13 4 0 -7 -10 -13 -22 -13 -21 -1 -21 -2 -5 -11 10 -6 23 -8 30 -6 17 6
69 -22 65 -35 -7 -19 -48 -20 -56 0 -6 15 -19 20 -59 24 -7 1 -10 5 -8 9 6 9
-90 23 -103 15 -6 -3 -13 1 -16 10 -9 23 -8 26 7 18 8 -5 9 -4 2 4 -6 6 -20
13 -32 15 -13 2 -26 6 -29 10 -4 4 -16 7 -26 7 -11 0 -16 5 -13 10 3 6 -3 10
-14 10 -12 0 -20 -5 -19 -12 2 -7 -4 -12 -12 -13 -8 -1 -14 -6 -13 -11 1 -6
-3 -11 -10 -11 -7 0 -19 -2 -27 -4 -11 -3 -15 4 -14 27 l2 31 -47 -5 c-52 -5
-61 -10 -42 -21 22 -14 9 -46 -17 -43 -12 2 -22 -1 -22 -7 0 -6 -7 -8 -15 -5
-9 4 -17 -1 -21 -12 -3 -11 -12 -31 -20 -45 -12 -24 -12 -28 4 -35 9 -4 22 -7
27 -6 6 1 18 -17 28 -38 21 -46 39 -54 28 -12 -4 15 -6 33 -4 40 7 19 67 14
91 -8 20 -19 22 -19 31 -2 7 14 18 17 46 14 51 -6 39 -25 -24 -37 -51 -10 -60
-25 -15 -25 31 0 55 -10 48 -21 -3 -5 -18 -9 -33 -9 -22 0 -31 -7 -41 -29 -10
-26 -8 -37 26 -108 l38 -78 -1 -316 c0 -174 -4 -334 -8 -357 -7 -45 -16 -49
-69 -32 -43 14 -417 110 -439 113 -14 2 -34 -49 -116 -293 -54 -162 -102 -305
-105 -317 -6 -18 -2 -22 24 -28 40 -9 38 -25 -2 -26 -18 -1 1 -5 42 -10 60 -6
119 -25 300 -97 124 -49 244 -95 268 -102 56 -17 53 -31 -5 -30 -27 1 -131 0
-233 -1 -172 -1 -178 -2 -90 -10 130 -11 386 -23 435 -21 23 2 71 -9 115 -25
l75 -28 -135 -8 c-74 -4 -187 -10 -250 -14 l-115 -7 190 -8 c105 -4 253 -12
330 -17 138 -9 142 -10 300 -71 88 -34 164 -65 168 -70 9 -8 -94 -187 -119
-206 -8 -6 -14 -16 -14 -22 0 -6 -30 -57 -67 -113 -38 -56 -72 -109 -78 -118
-72 -116 -171 -268 -179 -276 -6 -6 -22 -32 -36 -58 -44 -85 -60 -97 -131 -97
-73 0 -75 -6 -5 -14 27 -3 52 -8 54 -11 6 -5 -60 -109 -91 -142 -11 -13 -32
-24 -46 -24 -24 -2 -24 -2 -3 -6 12 -2 22 -7 22 -10 0 -4 -27 -48 -60 -99 -33
-51 -60 -95 -60 -98 0 -3 35 -33 77 -66 42 -33 83 -70 90 -80 8 -11 20 -20 26
-20 7 0 27 -13 45 -30 18 -16 38 -30 43 -30 6 0 7 -4 4 -10 -3 -5 1 -10 9 -10
8 0 16 -10 18 -21 2 -13 18 -30 38 -40 19 -11 30 -19 25 -19 -6 0 -1 -7 9 -15
11 -8 16 -15 10 -16 -21 -1 34 -18 63 -18 18 -1 44 -6 58 -13 21 -9 28 -9 34
1 15 23 33 -17 39 -84 3 -47 1 -65 -7 -65 -9 0 -11 -17 -7 -60 3 -42 -1 -83
-14 -133 -11 -40 -19 -101 -19 -137 1 -36 3 -57 6 -48 8 33 43 32 76 0 l30
-31 -35 -21 c-20 -11 -39 -27 -42 -35 -8 -22 -26 -18 -26 4 0 11 -3 27 -7 37
-5 13 -10 6 -24 -27 -10 -24 -18 -56 -18 -71 -1 -15 -6 -30 -11 -33 -16 -10
-12 -67 7 -80 10 -8 14 -19 9 -30 -7 -20 -26 -19 -258 5 -89 9 -124 9 -205 -4
-103 -17 -544 -30 -996 -30 -197 0 -235 -2 -221 -13 10 -7 14 -13 8 -14 -5 0
-35 -2 -66 -5 -48 -4 -57 -2 -52 10 3 9 15 18 26 22 39 12 8 20 -112 29 -43 3
-58 1 -45 -5 11 -5 36 -9 55 -9 19 -1 42 -6 50 -11 13 -8 12 -12 -5 -30 -18
-18 -35 -21 -120 -22 -161 -3 -266 2 -260 12 4 6 -1 10 -10 10 -9 0 -13 -5
-10 -10 7 -11 -18 -14 -28 -4 -4 4 -42 7 -84 8 -43 1 -87 5 -98 10 -14 6 -16
5 -6 -2 16 -12 -68 -19 -309 -27 -145 -5 -182 -8 -238 -20 l-22 -5 0 -610 0
-610 4000 0 4000 0 0 690 c0 650 -1 690 -17 690 -10 0 -79 5 -153 10 -135 10
-136 10 -185 -15 -28 -14 -58 -25 -68 -25 -10 0 -28 -6 -40 -12 -19 -11 -297
-21 -432 -16 -16 1 -49 2 -73 2 -35 1 -42 4 -42 21 0 18 -1 18 -16 -3 -16 -24
-44 -28 -75 -12 -18 10 -18 13 13 53 18 23 38 46 45 52 12 10 35 86 34 117 0
10 5 21 11 24 8 5 9 -3 3 -27 -12 -52 -15 -111 -6 -126 10 -18 48 111 66 224
7 45 16 90 19 100 3 10 8 33 11 52 3 18 12 46 20 61 20 38 39 336 22 347 -5 3
-5 17 -2 33 4 20 2 29 -9 33 -9 4 -16 18 -16 32 0 14 -4 33 -9 43 -6 9 -20 46
-32 82 -49 146 -56 159 -55 106 1 -19 5 -32 10 -29 4 3 5 -3 2 -13 -3 -11 -2
-33 3 -49 4 -17 5 -39 0 -50 -7 -19 -8 -19 -8 -1 -1 11 -9 28 -18 38 -12 13
-14 21 -5 30 8 8 3 19 -19 42 -16 17 -29 36 -29 42 0 7 -7 14 -15 18 -8 3 -15
12 -15 21 0 15 -62 85 -76 85 -3 0 -21 13 -40 29 l-33 30 -145 -4 c-80 -2
-161 0 -180 5 -21 4 -36 4 -36 -1 0 -5 -6 -9 -14 -9 -9 0 -13 8 -10 23 2 12 2
16 -2 10 -9 -19 -61 -16 -68 3 -6 15 4 16 101 10 59 -4 110 -12 114 -18 4 -7
9 -7 14 1 5 9 11 9 23 -1 12 -10 14 -10 8 0 -5 8 1 12 21 12 122 1 254 8 260
13 3 4 -16 7 -43 7 -27 1 -148 3 -269 7 -360 9 -393 9 -405 -3 -9 -9 2 -11 42
-8 62 5 118 -3 118 -16 0 -6 -6 -10 -14 -10 -8 0 -27 -5 -43 -12 -15 -6 -35
-12 -43 -14 -8 -2 -23 -14 -33 -28 -18 -25 -19 -25 -173 -25 -126 1 -160 -2
-180 -15 -13 -9 -24 -14 -24 -11 0 3 -15 -1 -32 -8 -23 -9 -75 -13 -165 -12
-113 2 -136 5 -153 20 -30 27 -25 35 27 35 25 0 44 2 42 4 -4 4 -62 13 -97 15
-12 1 -132 176 -132 194 0 5 -14 25 -31 46 -18 20 -46 62 -63 92 -17 31 -58
96 -92 145 -34 49 -76 114 -93 144 -18 30 -57 91 -87 135 -30 44 -54 86 -54
93 0 6 -4 12 -9 12 -5 0 -18 15 -29 33 -10 17 -45 74 -76 126 -32 51 -54 97
-49 101 4 4 62 28 128 53 66 25 138 53 160 63 32 14 77 18 220 20 306 6 312 6
200 14 -55 4 -143 8 -194 9 -105 1 -107 8 -15 41 56 20 70 21 177 13 79 -6
116 -5 114 2 -5 13 -48 22 -111 24 -62 1 -53 11 39 46 249 94 275 102 378 104
36 1 47 5 47 17 0 13 3 14 15 4 11 -9 25 -10 65 0 27 7 50 16 50 21 0 5 7 9
16 9 14 0 16 -8 10 -50 -4 -28 -3 -50 2 -50 4 0 19 25 32 56 29 65 42 74 107
75 l48 0 -62 20 c-65 20 -77 33 -44 44 44 14 43 22 -63 338 -57 170 -106 310
-108 312 -2 2 -114 -25 -248 -61 -924 -246 -1225 -323 -1230 -314 -5 9 -30
426 -50 840 -5 107 -12 234 -16 281 l-6 87 59 7 c32 3 299 7 593 7 325 1 540
5 548 11 8 6 12 6 12 -2 0 -8 8 -10 19 -6 11 3 22 1 26 -5 3 -6 11 -8 16 -5 5
4 9 2 9 -3 0 -5 30 -10 68 -11 37 -1 141 -4 232 -6 240 -7 505 -14 752 -19
l217 -6 21 30 c21 29 21 38 19 420 -1 338 -3 391 -16 399 -9 5 -11 11 -6 14 9
6 3 79 -11 132 -3 11 -10 38 -16 60 -6 22 -12 49 -14 60 -4 27 -25 65 -35 65
-5 0 -12 17 -16 37 -4 21 -11 41 -17 44 -5 3 5 13 22 21 26 13 28 17 16 27
-11 10 -17 8 -30 -11 l-16 -23 -6 23 c-5 16 -14 22 -35 22 -35 0 -39 23 -7 37
20 9 18 10 -21 17 -36 5 -42 9 -36 24 5 9 10 31 12 47 6 43 25 77 39 71 11 -4
35 87 39 149 4 56 6 65 22 80 14 14 14 18 2 26 -10 6 -16 2 -21 -14 l-6 -22
-1 23 c-1 12 -5 22 -10 22 -5 0 -5 14 1 33 7 23 7 56 -1 108 -6 41 -14 101
-17 134 -3 33 -7 71 -9 85 -2 14 -4 33 -4 43 -1 16 -33 17 -521 17 l-520 0 0
-27 c0 -16 5 -46 11 -68 38 -139 44 -580 9 -644 -5 -11 -7 -27 -4 -36 14 -35
-47 -48 -62 -14 -9 20 -10 20 -37 -5 -20 -18 -23 -26 -13 -26 9 0 16 -4 16
-10 0 -9 -50 -13 -210 -15 -60 -1 -67 1 -94 29 -24 25 -29 38 -27 71 2 22 7
42 12 43 5 2 6 8 3 14 -4 5 -6 43 -6 84 -1 40 -4 71 -9 68 -5 -3 -10 6 -11 20
-4 55 -7 82 -16 117 -5 21 -6 43 -1 50 4 8 4 16 0 19 -5 3 -11 46 -14 95 -6
101 -15 145 -28 145 -5 0 -9 20 -9 45 l0 45 -2366 0 -2366 0 6 -27z m2146
-1957 c0 -3 -4 -8 -10 -11 -5 -3 -10 -1 -10 4 0 6 5 11 10 11 6 0 10 -2 10 -4z
m-150 -41 c0 -8 -4 -15 -10 -15 -5 0 -10 7 -10 15 0 8 5 15 10 15 6 0 10 -7
10 -15z m349 -14 c-3 -6 -10 -7 -18 -2 -7 5 -10 14 -6 21 9 14 29 -2 24 -19z
m-304 -20 c3 -5 1 -12 -5 -16 -5 -3 -10 1 -10 9 0 18 6 21 15 7z m323 -36 c15
-15 -22 -26 -79 -23 -50 2 -64 7 -67 19 -3 14 7 16 69 13 40 -2 75 -6 77 -9z
m2842 -50 c0 -8 -4 -15 -10 -15 -5 0 -7 7 -4 15 4 8 8 15 10 15 2 0 4 -7 4
-15z m-1590 -2660 c55 -68 100 -126 100 -130 0 -3 -23 -5 -51 -5 -31 0 -48 -4
-44 -10 3 -5 32 -10 64 -10 57 0 58 -1 99 -49 23 -27 42 -54 42 -60 0 -5 -19
-12 -42 -15 -87 -11 -92 -13 -37 -15 70 -1 119 -11 119 -22 0 -5 -12 -9 -27
-9 -16 0 -35 -5 -43 -10 -11 -7 1 -10 40 -10 30 0 60 -4 65 -8 19 -14 98 -113
93 -117 -8 -8 -951 -6 -959 2 -4 5 21 42 55 83 l63 76 79 -3 c44 -1 87 0 97 3
33 10 17 21 -41 27 -62 7 -92 15 -92 26 0 3 17 25 38 47 37 40 42 42 118 49
86 8 87 10 2 20 l-57 6 86 107 c87 108 124 152 129 152 2 0 48 -56 104 -125z
m230 -507 c30 -6 75 -14 100 -18 37 -6 40 -8 15 -10 -74 -5 -753 -1 -776 5
-15 4 -29 2 -33 -3 -6 -11 -56 -4 -56 8 0 31 609 46 750 18z m-50 -228 c0 -5
6 -10 14 -10 20 0 37 -25 31 -43 -9 -23 -78 -37 -107 -22 -13 6 -22 17 -20 24
1 7 -2 19 -8 26 -8 9 -5 14 12 19 13 3 25 1 26 -4 7 -20 34 -40 45 -33 8 5 8
8 -1 11 -14 4 -16 42 -2 42 6 0 10 -4 10 -10z m1114 -135 c-7 -16 -49 -21 -58
-6 -8 13 5 21 35 21 21 0 27 -4 23 -15z m1646 -22 c0 -6 -28 -33 -34 -33 -3 0
-6 11 -6 24 0 19 4 23 20 19 11 -3 20 -7 20 -10z m-900 -49 c0 -2 -7 -4 -15
-4 -8 0 -15 4 -15 10 0 5 7 7 15 4 8 -4 15 -8 15 -10z m505 -244 c3 -6 -1 -7
-9 -4 -18 7 -21 14 -7 14 6 0 13 -4 16 -10z m404 -44 c-9 -8 -10 -7 -5 7 3 10
7 26 7 35 1 9 4 6 6 -7 3 -13 -1 -28 -8 -35z m-2269 -31 c0 -8 -4 -15 -9 -15
-13 0 -22 16 -14 24 11 11 23 6 23 -9z m200 -24 c0 -5 -7 -11 -15 -15 -15 -5
-20 5 -8 17 9 10 23 9 23 -2z m270 -1 c0 -5 6 -7 14 -4 19 7 46 -23 46 -52 0
-34 -23 -30 -37 7 -9 22 -17 30 -27 26 -10 -4 -20 2 -26 13 -9 17 -7 20 10 20
11 0 20 -4 20 -10z m-255 -27 c-2 -10 -4 -19 -4 -21 -1 -2 -6 0 -11 3 -8 5 -7
11 1 21 15 18 18 18 14 -3z m-1898 -135 c-3 -7 -5 -2 -5 12 0 14 2 19 5 13 2
-7 2 -19 0 -25z m3 -27 c0 -6 -4 -13 -10 -16 -5 -3 -10 1 -10 9 0 9 5 16 10
16 6 0 10 -4 10 -9z m497 -153 c7 -6 10 -15 7 -20 -8 -13 -143 -3 -157 11 -10
10 -8 12 33 24 23 6 103 -4 117 -15z m53 -9 c0 -14 -27 -10 -33 5 -4 10 0 12
14 9 10 -3 19 -9 19 -14z m2715 -119 c-18 -20 -50 -24 -34 -4 5 6 9 16 8 20
-3 20 2 23 21 12 17 -11 18 -14 5 -28z m245 30 c0 -5 -5 -10 -11 -10 -5 0 -7
5 -4 10 3 6 8 10 11 10 2 0 4 -4 4 -10z m-170 -24 c0 -11 -19 -15 -25 -6 -3 5
1 10 9 10 9 0 16 -2 16 -4z m-46 -41 c-8 -21 41 -43 64 -28 10 5 26 7 37 2 11
-4 45 -8 75 -9 64 -2 100 -12 81 -24 -7 -4 -22 -5 -35 -2 -12 3 -85 6 -162 7
-76 1 -145 6 -151 11 -9 7 -15 5 -19 -6 -3 -9 -10 -16 -15 -16 -11 0 -12 50
-1 51 4 1 20 3 36 5 16 2 34 8 40 14 16 16 56 13 50 -5z m-3074 1 c0 -3 -4 -8
-10 -11 -5 -3 -10 -1 -10 4 0 6 5 11 10 11 6 0 10 -2 10 -4z m290 -16 c0 -5
-7 -10 -15 -10 -8 0 -15 5 -15 10 0 6 7 10 15 10 8 0 15 -4 15 -10z m2470 -19
c0 -14 -18 -23 -30 -16 -6 4 -8 11 -5 16 8 12 35 12 35 0z m144 3 c9 -3 16
-10 16 -16 0 -14 -43 -5 -48 10 -4 13 7 15 32 6z m-2168 -15 c9 -15 -125 -14
-140 2 -6 5 18 9 62 8 40 -1 75 -5 78 -10z m2664 1 c0 -5 -7 -10 -15 -10 -8 0
-15 5 -15 10 0 6 7 10 15 10 8 0 15 -4 15 -10z m-2532 -7 c-10 -2 -26 -2 -35
0 -10 3 -2 5 17 5 19 0 27 -2 18 -5z m672 -14 c19 -5 70 -9 112 -9 42 0 80 -5
83 -10 9 -14 -496 -2 -510 13 -7 7 -6 8 3 3 6 -4 12 -2 12 3 0 7 34 10 95 9
52 0 98 2 101 5 7 6 45 1 104 -14z m-405 1 c-3 -5 -24 -10 -46 -10 -21 0 -39
5 -39 10 0 6 21 10 46 10 27 0 43 -4 39 -10z m55 0 c0 -5 -4 -10 -10 -10 -5 0
-10 5 -10 10 0 6 5 10 10 10 6 0 10 -4 10 -10z m1100 0 c0 -5 -9 -10 -19 -10
-11 0 -23 5 -26 10 -4 6 5 10 19 10 14 0 26 -4 26 -10z m215 0 c-3 -5 -15 -10
-25 -10 -10 0 -22 5 -25 10 -4 6 7 10 25 10 18 0 29 -4 25 -10z m100 0 c-3 -5
-19 -10 -36 -10 -16 0 -29 5 -29 10 0 6 16 10 36 10 21 0 33 -4 29 -10z m-728
-16 c-3 -3 -12 -4 -19 -1 -8 3 -5 6 6 6 11 1 17 -2 13 -5z m1818 -54 c3 -5 2
-10 -4 -10 -5 0 -13 5 -16 10 -3 6 -2 10 4 10 5 0 13 -4 16 -10z m-755 -50 c0
-5 -6 -10 -14 -10 -8 0 -18 5 -21 10 -3 6 3 10 14 10 12 0 21 -4 21 -10z m348
-18 c2 -13 1 -31 -3 -40 -5 -13 -10 -9 -26 17 -11 18 -17 37 -13 42 11 18 39
5 42 -19z m-983 8 c3 -5 -3 -10 -15 -10 -12 0 -18 5 -15 10 3 6 10 10 15 10 5
0 12 -4 15 -10z m317 5 c15 -4 26 -11 22 -16 -6 -11 -186 -12 -235 -2 l-34 7
30 6 c47 8 186 11 217 5z m688 -182 c-1 -24 -2 -26 -11 -10 -5 9 -7 22 -4 27
10 17 15 11 15 -17z"/>
<path d="M4078 3043 c7 -3 16 -2 19 1 4 3 -2 6 -13 5 -11 0 -14 -3 -6 -6z"/>
<path d="M3860 2890 c-11 -7 1 -10 39 -10 30 0 52 2 50 4 -11 10 -76 14 -89 6z"/>
<path d="M300 7839 c0 -24 4 -38 10 -34 6 3 10 22 10 41 0 19 -4 34 -10 34 -5
0 -10 -18 -10 -41z"/>
<path d="M432 7830 c0 -14 2 -19 5 -12 2 6 2 18 0 25 -3 6 -5 1 -5 -13z"/>
<path d="M6900 7820 c-44 -7 -44 -7 -10 -10 19 -1 48 -4 63 -6 24 -2 27 -1 17
12 -7 7 -15 13 -19 12 -3 0 -26 -4 -51 -8z"/>
<path d="M7025 7820 c-8 -13 -1 -24 14 -19 6 3 7 10 2 18 -6 10 -10 10 -16 1z"/>
<path d="M306 7757 c-5 -15 -6 -31 -2 -34 11 -11 18 5 14 34 l-4 28 -8 -28z"/>
<path d="M314 7684 c3 -9 6 -27 6 -41 0 -18 4 -24 15 -19 8 3 15 1 15 -3 0 -5
-5 -11 -10 -13 -6 -2 -12 -53 -15 -119 -2 -63 -4 -119 -6 -124 -1 -6 -1 -17 0
-25 1 -12 5 -11 16 4 18 24 19 40 3 30 -10 -6 -10 -4 -2 7 14 18 25 149 12
149 -5 0 -7 4 -4 9 12 19 15 85 4 104 -8 16 -8 22 1 25 6 2 11 8 11 14 0 6 -7
8 -15 4 -8 -3 -15 -1 -15 4 0 6 -5 10 -11 10 -6 0 -8 -7 -5 -16z"/>
<path d="M435 7420 c3 -5 8 -10 11 -10 2 0 4 5 4 10 0 6 -5 10 -11 10 -5 0 -7
-4 -4 -10z"/>
<path d="M413 7374 c-7 -7 -12 -23 -12 -36 1 -18 2 -19 6 -5 3 11 11 16 19 13
15 -6 16 0 6 25 -6 14 -9 15 -19 3z"/>
<path d="M5471 7291 c-1 -27 2 -32 11 -23 8 8 8 17 0 34 -10 22 -11 21 -11
-11z"/>
<path d="M323 7293 c3 -13 2 -23 -3 -23 -4 0 -15 -11 -24 -25 -15 -23 -15 -25
3 -34 13 -7 29 -7 50 0 35 12 32 29 -5 29 -22 0 -23 2 -14 20 8 15 8 25 0 38
-10 15 -11 14 -7 -5z"/>
<path d="M5460 7190 c-12 -8 -11 -10 8 -10 12 0 22 5 22 10 0 13 -11 13 -30 0z"/>
<path d="M1280 7180 c0 -6 7 -10 15 -10 8 0 15 2 15 4 0 2 -7 6 -15 10 -8 3
-15 1 -15 -4z"/>
<path d="M1346 7181 c-4 -5 -2 -12 3 -15 5 -4 12 -2 15 3 4 5 2 12 -3 15 -5 4
-12 2 -15 -3z"/>
<path d="M1396 7169 c3 -5 19 -9 36 -9 17 0 28 3 24 7 -11 11 -67 12 -60 2z"/>
<path d="M1570 7150 c36 -11 50 -11 50 0 0 6 -17 10 -37 9 -34 -1 -35 -2 -13
-9z"/>
<path d="M1718 7148 c9 -9 15 -9 24 0 9 9 7 12 -12 12 -19 0 -21 -3 -12 -12z"/>
<path d="M1764 7149 c-6 -10 149 -17 160 -8 4 4 -29 9 -74 11 -45 2 -84 0 -86
-3z"/>
<path d="M3467 7153 c-28 -7 -14 -27 21 -29 18 -1 32 1 32 5 0 9 -22 31 -29
30 -4 -1 -14 -3 -24 -6z"/>
<path d="M1960 7141 c0 -5 26 -11 58 -13 61 -4 85 -1 77 12 -7 11 -135 12
-135 1z"/>
<path d="M2180 7140 c20 -13 63 -13 55 0 -3 6 -21 10 -38 10 -24 0 -28 -3 -17
-10z"/>
<path d="M3353 7143 c9 -2 23 -2 30 0 6 3 -1 5 -18 5 -16 0 -22 -2 -12 -5z"/>
<path d="M95 7111 c-6 -11 9 -23 19 -14 9 9 7 23 -3 23 -6 0 -12 -4 -16 -9z"/>
<path d="M660 7105 c0 -16 16 -20 24 -6 3 5 -1 11 -9 15 -9 3 -15 0 -15 -9z"/>
<path d="M7117 7114 c-15 -16 -5 -91 19 -139 30 -59 51 -121 65 -190 19 -95
49 -270 60 -360 6 -49 15 -94 18 -100 4 -5 8 -50 9 -100 1 -49 6 -105 12 -124
14 -50 2 -232 -17 -253 -15 -17 -14 -18 7 -18 18 0 21 -3 13 -11 -7 -7 -36
-11 -66 -11 -73 1 -80 -7 -40 -47 22 -23 33 -29 33 -18 0 8 -5 17 -12 19 -7 3
-8 10 -4 17 6 8 26 12 60 9 47 -3 51 -1 51 19 0 12 4 25 8 29 4 4 7 17 7 30 0
23 17 34 52 34 16 0 18 3 9 14 -6 8 -11 18 -10 22 4 21 -2 26 -17 13 -14 -11
-15 -7 -12 32 2 35 6 43 21 41 9 -2 17 2 17 8 0 6 4 9 9 6 15 -10 21 22 6 34
-7 6 -10 20 -7 32 3 14 1 19 -6 14 -8 -5 -12 3 -12 23 0 17 4 31 9 31 5 0 12
7 15 16 6 15 4 15 -11 3 -15 -12 -16 -12 -8 1 5 8 17 21 28 29 10 7 16 20 12
28 -3 9 3 22 12 30 10 8 11 11 3 7 -12 -6 -13 -5 -3 7 9 11 8 18 -3 33 -18 25
-18 66 0 66 7 0 16 9 19 20 3 11 2 20 -3 20 -15 0 -20 31 -8 49 9 15 8 22 -5
36 -9 9 -17 30 -17 46 0 16 -5 29 -11 29 -5 0 -7 5 -4 10 3 6 1 10 -5 10 -6 0
-9 4 -6 9 4 5 1 11 -4 13 -7 2 -8 12 -2 28 5 14 13 23 18 20 10 -5 14 43 6 72
-2 10 -11 18 -20 18 -8 0 -12 3 -9 7 4 3 3 11 -2 17 -5 6 -12 29 -14 51 -2 22
-7 47 -10 55 -3 8 -13 38 -22 65 -9 28 -24 58 -32 68 -9 9 -13 17 -9 17 23 0
-58 51 -95 59 -63 15 -69 14 -70 -11 l-1 -23 -7 23 c-3 13 -9 20 -14 16z m87
-146 c8 -32 7 -40 -3 -34 -11 7 -21 56 -11 56 4 0 10 -10 14 -22z m44 -131
c33 -72 44 -105 38 -116 -4 -5 -2 -12 4 -16 15 -9 12 -25 -5 -25 -19 0 -35 31
-35 72 0 18 -9 44 -20 58 -19 25 -28 86 -11 76 5 -4 18 -25 29 -49z m112 -198
c0 -15 -4 -19 -16 -15 -9 3 -18 6 -20 6 -2 0 -4 7 -4 15 0 8 9 15 20 15 14 0
20 -7 20 -21z m-61 -41 c0 -28 -2 -30 -9 -13 -12 28 -12 45 0 45 6 0 10 -15 9
-32z m11 -120 c0 -18 -2 -20 -9 -8 -6 8 -7 18 -5 22 9 14 14 9 14 -14z m17
-70 c-3 -7 -5 -2 -5 12 0 14 2 19 5 13 2 -7 2 -19 0 -25z m30 -121 c2 -17 4
-43 6 -57 1 -14 -1 -26 -5 -27 -5 -2 -8 -2 -9 0 -10 36 -25 128 -21 132 11 10
26 -15 29 -48z m13 -160 c0 -5 -4 -5 -10 -2 -5 3 -10 14 -10 23 0 15 2 15 10
2 5 -8 10 -19 10 -23z m-3 -74 c-3 -10 -5 -4 -5 12 0 17 2 24 5 18 2 -7 2 -21
0 -30z"/>
<path d="M2035 7101 c-3 -6 1 -11 10 -11 9 0 14 -4 11 -9 -3 -5 1 -15 10 -22
14 -11 15 -9 12 16 -3 30 -30 46 -43 26z"/>
<path d="M2385 7099 c-47 -12 -54 -20 -48 -68 10 -81 22 -122 41 -144 9 -9 17
-34 19 -55 2 -20 8 -39 14 -40 6 -3 5 -10 -3 -20 -8 -9 -8 -13 -1 -9 7 4 15
-5 22 -24 10 -29 12 -30 27 -14 16 15 18 15 26 1 5 -9 16 -16 23 -16 9 0 15
-10 15 -22 0 -18 2 -20 10 -8 8 13 11 13 22 1 7 -8 8 -11 1 -7 -8 4 -8 0 0
-19 12 -25 39 -43 34 -23 -1 6 4 13 11 15 20 8 13 -15 -10 -31 -12 -9 -17 -16
-11 -16 15 0 25 -43 12 -51 -7 -4 -8 -9 -1 -13 5 -3 13 1 16 9 4 12 10 13 25
6 14 -8 22 -7 31 4 9 11 10 15 1 15 -7 0 -10 4 -7 9 3 5 -1 14 -9 21 -27 23
-16 32 14 11 15 -11 31 -17 35 -14 3 4 13 -2 21 -13 15 -19 15 -19 30 0 8 11
12 29 9 43 -4 14 -2 23 5 23 6 0 11 5 11 10 0 6 -9 10 -20 10 -12 0 -20 7 -21
18 0 13 -3 12 -11 -6 -6 -12 -16 -21 -22 -19 -14 5 -18 57 -5 57 6 0 8 -4 4
-9 -3 -5 -1 -12 5 -16 5 -3 10 -1 10 6 0 6 7 17 16 23 18 14 10 61 -11 70 -9
3 -12 0 -8 -10 3 -7 1 -14 -5 -14 -6 0 -14 12 -20 28 -11 33 5 53 40 47 12 -3
32 -7 44 -9 19 -4 21 0 19 42 -1 39 -5 47 -21 46 -13 0 -19 7 -21 25 0 15 -4
39 -8 54 -4 15 -4 27 1 26 5 -1 16 1 24 4 8 3 35 8 60 11 25 3 46 5 48 5 1 1
2 5 2 9 0 13 -61 14 -76 1 -11 -9 -18 -8 -29 1 -8 6 -18 9 -23 6 -6 -3 -29 1
-53 10 -24 9 -82 17 -129 18 -47 2 -96 6 -110 9 -14 3 -43 1 -65 -4z m385
-201 c0 -4 -4 -8 -9 -8 -6 0 -12 4 -15 8 -3 5 1 9 9 9 8 0 15 -4 15 -9z m-10
-38 c6 -11 9 -20 7 -20 -2 0 -14 9 -27 20 -18 16 -19 20 -7 20 9 0 21 -9 27
-20z m-105 -206 c16 -25 16 -25 -4 -14 -12 6 -21 17 -21 25 0 21 5 19 25 -11z
m-8 -83 c4 -27 -12 -20 -20 9 -3 13 -1 20 5 18 6 -2 13 -14 15 -27z"/>
<path d="M7613 7096 c-26 -12 -30 -38 -8 -56 8 -7 14 -18 13 -24 -4 -22 14
-112 33 -161 10 -27 19 -57 19 -65 0 -9 11 -31 24 -50 19 -29 24 -53 30 -140
3 -58 10 -134 16 -170 11 -77 6 -320 -10 -405 -6 -33 -13 -90 -16 -127 -5 -66
-5 -67 25 -82 16 -9 40 -17 53 -17 13 -1 1 -5 -27 -9 -64 -10 -184 -1 -211 15
-13 8 -26 10 -36 4 -11 -6 -19 -5 -23 1 -9 15 -77 11 -99 -5 -17 -13 -18 -15
-3 -15 9 0 17 -7 17 -16 0 -13 -7 -15 -35 -10 -35 7 -36 6 -29 -21 4 -15 8
-30 10 -32 2 -2 -8 -18 -21 -36 -14 -17 -22 -35 -17 -40 4 -4 -2 -3 -14 3 -12
6 -26 7 -34 2 -17 -11 -33 -3 -24 12 7 11 -16 29 -28 22 -4 -3 -8 -12 -8 -20
0 -8 5 -12 10 -9 6 4 6 -3 -1 -17 -19 -43 -69 -60 -69 -24 0 8 -7 27 -16 42
-15 28 -15 25 -9 -51 10 -119 13 -675 4 -737 -5 -29 -11 -93 -15 -143 -10
-147 -22 -267 -32 -315 -17 -82 -19 -95 -15 -85 2 6 17 18 34 27 17 10 27 22
24 28 -3 5 -1 10 5 10 6 0 18 7 26 15 9 8 26 15 39 15 13 0 31 7 39 16 9 8 20
12 26 9 5 -3 10 3 10 14 0 12 3 21 8 22 14 1 40 7 60 13 19 6 19 3 17 -71 -1
-43 -6 -91 -10 -107 -6 -21 -5 -27 4 -22 6 4 11 3 11 -3 0 -18 178 -25 520
-22 84 1 120 5 110 11 -10 6 -11 10 -2 10 9 0 12 158 12 755 l0 755 -52 2
c-29 1 -68 1 -85 -1 -18 -1 -33 2 -33 6 0 9 48 33 67 33 7 0 13 4 13 10 0 5
17 19 39 29 36 19 60 59 47 80 -3 4 -6 98 -7 209 0 111 -5 205 -10 208 -5 3
-8 28 -7 55 1 45 -13 102 -58 239 -9 25 -17 58 -20 74 -2 16 -8 34 -13 40 -5
6 -12 27 -16 46 -6 31 -45 102 -74 137 -6 6 -6 13 -2 15 13 4 -3 84 -20 101
-29 29 -118 42 -156 23z m-186 -1443 c-3 -10 -5 -2 -5 17 0 19 2 27 5 18 2
-10 2 -26 0 -35z m-32 -5 c-13 -8 -14 -13 -4 -24 9 -11 9 -14 0 -14 -7 0 -9
-5 -4 -12 9 -15 9 -18 19 -115 l7 -76 -53 5 c-28 3 -48 2 -43 -1 5 -3 13 -14
16 -25 4 -10 13 -16 22 -13 12 5 12 2 3 -18 -6 -14 -15 -25 -20 -25 -4 0 -8
-6 -8 -14 0 -23 -47 -47 -99 -50 -40 -2 -51 1 -62 18 -15 24 -13 159 2 164 5
2 9 13 9 24 0 14 5 18 15 15 8 -4 17 -1 21 5 4 6 3 8 -3 5 -10 -7 -33 33 -33
58 0 10 9 14 31 11 19 -2 32 1 36 10 3 8 14 14 25 14 14 0 18 5 14 15 -4 11 1
15 19 15 13 0 27 5 30 10 4 6 11 8 16 5 5 -4 14 -3 21 1 8 5 6 10 -8 15 -14 5
-10 7 14 6 26 0 30 -2 17 -9z m28 -357 c-4 -14 -7 -73 -7 -131 0 -59 -4 -108
-10 -112 -6 -4 -23 -4 -40 -1 -22 5 -27 3 -21 -7 5 -9 4 -11 -3 -6 -16 10 -15
36 1 37 12 0 -28 19 -49 23 -7 1 -19 8 -28 15 -9 7 -16 10 -16 6 0 -4 -7 -2
-15 5 -8 7 -12 16 -9 21 3 5 -3 6 -13 2 -10 -3 -15 -3 -11 2 4 4 0 14 -10 22
-12 10 -14 16 -4 19 6 3 10 9 7 14 -6 9 27 23 43 18 5 -2 18 7 28 19 11 12 30
24 45 25 14 2 40 15 58 29 43 34 63 34 54 0z m47 -12 c0 -6 -4 -7 -10 -4 -5 3
-10 11 -10 16 0 6 5 7 10 4 6 -3 10 -11 10 -16z m3 -46 c3 -15 3 -33 0 -40
-10 -25 -19 -13 -21 27 -3 45 13 55 21 13z m-211 -153 c28 -27 68 -58 89 -67
21 -10 39 -25 39 -34 0 -23 -32 -49 -63 -51 -15 -1 -27 -8 -27 -14 0 -18 -49
-23 -82 -10 -15 7 -25 15 -22 19 4 4 2 13 -4 20 -7 8 -10 16 -7 19 3 3 -1 11
-10 18 -15 12 -22 35 -7 27 4 -3 7 20 8 50 1 47 11 72 32 73 1 0 26 -22 54
-50z m203 -27 c2 -38 7 -76 10 -85 9 -22 -35 -32 -55 -13 -13 13 -12 15 7 15
27 0 33 23 26 102 -3 35 -3 60 1 57 4 -4 9 -38 11 -76z m-8 -190 c-3 -10 -5
-2 -5 17 0 19 2 27 5 18 2 -10 2 -26 0 -35z m-260 15 c-3 -8 -6 -5 -6 6 -1 11
2 17 5 13 3 -3 4 -12 1 -19z m200 -27 c-3 -33 -1 -51 6 -54 8 -2 6 -10 -6 -21
-9 -10 -15 -22 -11 -27 9 -16 -16 -117 -32 -123 -7 -3 -14 0 -14 6 0 6 -11 8
-29 5 -25 -5 -28 -3 -24 13 4 15 -2 22 -23 30 -32 13 -66 45 -57 54 4 3 -4 6
-16 6 -33 0 -24 40 14 60 16 8 36 23 43 33 7 9 18 17 24 17 5 0 22 8 36 19 26
18 51 27 80 30 10 1 12 -11 9 -48z m-211 -168 c19 -12 22 -18 12 -24 -10 -7
-9 -9 3 -9 9 0 22 -6 29 -14 6 -8 21 -16 33 -18 12 -2 21 -9 20 -15 -2 -8 4
-10 15 -6 9 3 14 3 10 -2 -4 -4 -3 -15 4 -22 17 -21 -84 -113 -124 -113 -18 0
-28 5 -28 15 0 8 -9 20 -19 27 -15 9 -17 15 -9 25 6 8 8 16 5 20 -4 3 -2 15 4
26 7 12 7 17 1 13 -11 -6 -10 19 0 30 4 3 4 12 1 20 -3 8 -1 14 5 14 5 0 7 11
4 25 -5 29 0 31 34 8z m224 -395 c0 -11 -27 -10 -34 1 -4 5 -3 17 1 27 6 16 7
16 20 -2 7 -10 13 -21 13 -26z"/>
<path d="M7261 5446 c-14 -17 -1 -28 19 -16 11 7 12 12 4 20 -8 8 -14 7 -23
-4z"/>
<path d="M7320 5440 c0 -5 5 -10 11 -10 5 0 7 5 4 10 -3 6 -8 10 -11 10 -2 0
-4 -4 -4 -10z"/>
<path d="M7216 4933 c-6 -14 -5 -15 5 -6 7 7 10 15 7 18 -3 3 -9 -2 -12 -12z"/>
<path d="M7170 4642 c0 -12 19 -26 26 -19 2 2 -2 10 -11 17 -9 8 -15 8 -15 2z"/>
<path d="M3407 7076 c-7 -18 1 -26 25 -26 13 0 18 6 16 17 -4 22 -34 29 -41 9z"/>
<path d="M6878 7020 c3 -25 11 -54 19 -65 14 -18 14 -17 8 15 -4 19 -13 49
-20 65 -12 29 -13 29 -7 -15z"/>
<path d="M7386 7035 c3 -16 13 -37 21 -45 12 -13 12 -10 2 20 -16 46 -33 65
-23 25z"/>
<path d="M2095 7035 c4 -11 8 -25 8 -32 0 -7 4 -10 9 -7 4 3 3 15 -3 27 -16
30 -24 37 -14 12z"/>
<path d="M2970 7035 c0 -8 9 -19 20 -25 15 -8 20 -8 20 3 0 14 -19 37 -32 37
-4 0 -8 -7 -8 -15z"/>
<path d="M6914 6910 c4 -14 12 -45 17 -69 5 -24 11 -47 14 -49 10 -10 5 55 -6
89 -14 41 -35 66 -25 29z"/>
<path d="M7418 6923 c-7 -36 -2 -110 7 -106 13 4 35 -60 35 -101 0 -14 4 -26
8 -26 13 0 13 70 0 94 -7 11 -13 37 -14 56 -3 51 -29 112 -36 83z"/>
<path d="M7856 6897 c3 -10 9 -15 12 -12 3 3 0 11 -7 18 -10 9 -11 8 -5 -6z"/>
<path d="M6950 6757 c0 -28 23 -132 31 -141 12 -14 0 96 -12 111 -6 6 -8 17
-5 22 4 5 2 12 -4 16 -5 3 -10 0 -10 -8z"/>
<path d="M2997 6736 c-6 -16 2 -28 14 -20 12 7 11 34 0 34 -5 0 -11 -6 -14
-14z"/>
<path d="M7473 6599 c5 -104 27 -159 25 -64 0 33 -4 65 -7 70 -4 6 -8 24 -10
40 -7 65 -12 35 -8 -46z"/>
<path d="M2207 6586 c-6 -15 1 -26 15 -26 4 0 8 9 8 20 0 23 -15 27 -23 6z"/>
<path d="M2768 6569 c3 -22 9 -29 19 -24 9 3 21 2 27 -2 7 -5 5 -1 -4 7 -9 8
-19 23 -23 33 -11 28 -24 19 -19 -14z"/>
<path d="M6985 6573 c4 -16 11 -44 14 -63 4 -22 9 -29 13 -20 7 19 -14 110
-25 110 -5 0 -6 -12 -2 -27z"/>
<path d="M2555 6570 c-3 -5 -1 -10 4 -10 6 0 11 5 11 10 0 6 -2 10 -4 10 -3 0
-8 -4 -11 -10z"/>
<path d="M2535 6511 c-4 -17 -11 -31 -16 -31 -6 0 -8 4 -4 9 5 10 -13 27 -20
19 -9 -9 20 -68 33 -68 9 0 12 -7 10 -18 -5 -17 -2 -17 18 -8 13 6 22 16 20
22 -2 6 0 17 4 24 13 22 59 -6 53 -31 -4 -14 0 -19 15 -19 16 0 20 7 20 36 0
28 -5 37 -23 44 -13 5 -26 13 -29 19 -4 6 -13 8 -22 4 -9 -3 -14 0 -12 8 2 7
-7 15 -19 17 -17 2 -23 -3 -28 -27z"/>
<path d="M7486 6454 c-4 -10 -2 -20 3 -23 5 -3 11 -17 14 -31 3 -20 5 -17 5
10 2 43 -12 70 -22 44z"/>
<path d="M2587 6454 c-8 -8 1 -24 14 -24 5 0 9 7 9 15 0 15 -12 20 -23 9z"/>
<path d="M2241 6418 c-1 -21 4 -38 9 -38 12 0 12 27 0 55 -7 16 -9 13 -9 -17z"/>
<path d="M2700 6421 c0 -5 7 -14 15 -21 10 -9 15 -9 15 -1 0 6 -5 11 -11 11
-5 0 -7 5 -4 10 3 6 1 10 -4 10 -6 0 -11 -4 -11 -9z"/>
<path d="M7012 6410 c0 -14 2 -19 5 -12 2 6 2 18 0 25 -3 6 -5 1 -5 -13z"/>
<path d="M2623 6386 c-6 -9 17 -27 27 -21 3 2 6 -5 7 -15 2 -27 -14 -34 -22
-10 -3 11 -11 20 -17 20 -5 0 -7 -7 -4 -16 3 -9 6 -22 6 -29 0 -16 43 -11 48
5 4 12 42 13 42 1 0 -13 -26 -32 -34 -24 -3 4 -12 -2 -20 -12 -8 -11 -18 -15
-26 -10 -9 5 -11 4 -6 -4 9 -15 73 -9 89 9 10 10 9 11 -3 6 -13 -7 -13 -6 0 6
8 7 16 21 17 31 0 10 -1 16 -4 13 -9 -9 -41 37 -36 51 6 14 -55 14 -64 -1z"/>
<path d="M2695 6370 c3 -5 8 -10 11 -10 2 0 4 5 4 10 0 6 -5 10 -11 10 -5 0
-7 -4 -4 -10z"/>
<path d="M2260 6288 c0 -16 5 -28 10 -28 13 0 13 20 0 40 -8 12 -10 9 -10 -12z"/>
<path d="M2260 6165 c0 -25 5 -45 10 -45 6 0 10 20 10 45 0 25 -4 45 -10 45
-5 0 -10 -20 -10 -45z"/>
<path d="M2680 6140 c0 -5 5 -10 10 -10 6 0 10 5 10 10 0 6 -4 10 -10 10 -5 0
-10 -4 -10 -10z"/>
<path d="M2256 6030 c-4 -35 -14 -73 -22 -86 -9 -13 -14 -31 -12 -41 3 -15 8
-12 27 14 18 24 25 47 27 91 3 82 -12 98 -20 22z"/>
<path d="M7692 5960 c0 -19 2 -27 5 -17 2 9 2 25 0 35 -3 9 -5 1 -5 -18z"/>
<path d="M15 5961 c-18 -7 -18 -8 5 -14 14 -4 36 -16 50 -28 l25 -21 -47 6
-48 6 0 -760 0 -759 36 -7 c27 -5 32 -9 22 -16 -9 -7 -5 -8 12 -3 82 21 539
25 1110 10 96 -2 167 -2 158 1 -33 10 -18 22 40 35 31 7 64 18 73 26 8 7 21
13 28 13 9 0 11 8 7 24 -4 15 0 28 9 36 8 7 15 20 15 30 0 9 7 31 16 49 14 28
15 69 8 354 -8 326 -8 406 1 464 3 17 -2 46 -9 64 -11 26 -11 35 -1 45 14 15
30 145 18 153 -5 3 -9 19 -10 36 -1 16 -5 31 -11 33 -5 1 -7 15 -4 30 3 20 2
24 -7 16 -9 -8 -20 -4 -41 16 -33 31 -52 33 -474 46 -187 6 -287 20 -181 25
28 2 61 2 75 1 14 -1 123 -4 242 -7 167 -4 224 -3 242 7 21 11 -3 13 -157 11
-173 -1 -272 4 -572 28 -117 10 -225 16 -400 23 -33 1 -94 10 -135 19 -41 9
-75 17 -75 16 0 0 -9 -4 -20 -8z m184 -57 c2 -2 -16 -4 -42 -4 -25 0 -48 4
-51 9 -5 8 84 3 93 -5z m144 -11 c-7 -2 -19 -2 -25 0 -7 3 -2 5 12 5 14 0 19
-2 13 -5z m185 -10 c-10 -2 -28 -2 -40 0 -13 2 -5 4 17 4 22 1 32 -1 23 -4z
m185 -10 c-7 -2 -19 -2 -25 0 -7 3 -2 5 12 5 14 0 19 -2 13 -5z"/>
<path d="M6980 5885 c0 -8 -4 -15 -10 -15 -5 0 -10 -7 -10 -15 0 -13 3 -13 20
-3 21 13 28 48 10 48 -5 0 -10 -7 -10 -15z"/>
<path d="M1410 5878 c0 -5 18 -8 40 -8 22 0 40 2 40 4 0 2 -18 6 -40 8 -22 2
-40 0 -40 -4z"/>
<path d="M7380 5879 c0 -5 5 -7 10 -4 6 3 10 8 10 11 0 2 -4 4 -10 4 -5 0 -10
-5 -10 -11z"/>
<path d="M1508 5873 c7 -3 16 -2 19 1 4 3 -2 6 -13 5 -11 0 -14 -3 -6 -6z"/>
<path d="M7662 5860 c-10 -17 -10 -20 3 -20 8 0 15 9 15 20 0 11 -1 20 -3 20
-1 0 -8 -9 -15 -20z"/>
<path d="M2123 5863 c9 -2 23 -2 30 0 6 3 -1 5 -18 5 -16 0 -22 -2 -12 -5z"/>
<path d="M3195 5840 c-3 -5 -1 -10 4 -10 6 0 11 5 11 10 0 6 -2 10 -4 10 -3 0
-8 -4 -11 -10z"/>
<path d="M1490 5819 c7 -11 14 -18 17 -15 8 8 -5 36 -17 36 -7 0 -7 -6 0 -21z"/>
<path d="M3468 5823 c7 -3 16 -2 19 1 4 3 -2 6 -13 5 -11 0 -14 -3 -6 -6z"/>
<path d="M7088 5788 c7 -7 12 -26 12 -43 0 -36 23 -74 34 -57 4 7 4 18 -1 25
-4 6 -8 14 -8 17 -6 42 -19 70 -33 70 -12 0 -13 -3 -4 -12z"/>
<path d="M3161 5184 c0 -11 3 -14 6 -6 3 7 2 16 -1 19 -3 4 -6 -2 -5 -13z"/>
<path d="M10 4351 c0 -5 -3 -17 -7 -26 -5 -16 -4 -16 15 1 12 9 19 21 16 26
-7 11 -24 10 -24 -1z"/>
<path d="M208 4163 c7 -3 16 -2 19 1 4 3 -2 6 -13 5 -11 0 -14 -3 -6 -6z"/>
<path d="M248 4163 c7 -3 16 -2 19 1 4 3 -2 6 -13 5 -11 0 -14 -3 -6 -6z"/>
<path d="M420 4160 c34 -11 60 -11 35 0 -11 5 -29 8 -40 8 -16 0 -15 -2 5 -8z"/>
<path d="M625 4140 c40 -9 162 -13 154 -6 -2 2 -47 6 -99 9 -65 3 -82 2 -55
-3z"/>
<path d="M5981 4134 c0 -11 3 -14 6 -6 3 7 2 16 -1 19 -3 4 -6 -2 -5 -13z"/>
<path d="M848 4133 c7 -3 16 -2 19 1 4 3 -2 6 -13 5 -11 0 -14 -3 -6 -6z"/>
<path d="M888 4133 c7 -3 16 -2 19 1 4 3 -2 6 -13 5 -11 0 -14 -3 -6 -6z"/>
<path d="M2048 4103 c6 -2 18 -2 25 0 6 3 1 5 -13 5 -14 0 -19 -2 -12 -5z"/>
<path d="M6383 4073 c4 -3 -1 -12 -11 -19 -27 -19 -7 -28 22 -9 32 21 33 35 4
35 -12 0 -18 -3 -15 -7z"/>
<path d="M7790 4048 c0 -4 4 -8 9 -8 6 0 12 4 15 8 3 5 -1 9 -9 9 -8 0 -15 -4
-15 -9z"/>
<path d="M7498 4043 c7 -3 16 -2 19 1 4 3 -2 6 -13 5 -11 0 -14 -3 -6 -6z"/>
<path d="M6826 4032 c-3 -5 1 -9 9 -9 8 0 12 4 9 9 -3 4 -7 8 -9 8 -2 0 -6 -4
-9 -8z"/>
<path d="M6336 3993 c-6 -14 -5 -15 5 -6 7 7 10 15 7 18 -3 3 -9 -2 -12 -12z"/>
<path d="M1448 3963 c6 -2 18 -2 25 0 6 3 1 5 -13 5 -14 0 -19 -2 -12 -5z"/>
<path d="M863 3953 c9 -2 25 -2 35 0 9 3 1 5 -18 5 -19 0 -27 -2 -17 -5z"/>
<path d="M928 3953 c7 -3 16 -2 19 1 4 3 -2 6 -13 5 -11 0 -14 -3 -6 -6z"/>
<path d="M6080 3871 c0 -5 7 -12 16 -15 10 -4 14 -14 11 -26 -3 -11 -2 -20 3
-20 13 0 20 43 8 57 -12 15 -38 18 -38 4z"/>
<path d="M6130 3830 c0 -5 5 -10 10 -10 6 0 10 5 10 10 0 6 -4 10 -10 10 -5 0
-10 -4 -10 -10z"/>
<path d="M6288 3593 c7 -3 16 -2 19 1 4 3 -2 6 -13 5 -11 0 -14 -3 -6 -6z"/>
<path d="M6136 3423 c-6 -7 40 -53 54 -53 4 0 15 10 26 21 l19 22 -29 -7 c-20
-5 -34 -2 -45 9 -10 8 -21 12 -25 8z"/>
<path d="M6270 3301 c0 -5 5 -13 10 -16 6 -3 10 -2 10 4 0 5 -4 13 -10 16 -5
3 -10 2 -10 -4z"/>
<path d="M6101 3084 c0 -11 3 -14 6 -6 3 7 2 16 -1 19 -3 4 -6 -2 -5 -13z"/>
<path d="M6113 3038 c-2 -16 1 -18 10 -9 7 7 8 14 1 21 -6 6 -10 2 -11 -12z"/>
<path d="M6121 2960 c0 -8 4 -24 9 -35 l9 -20 0 20 c0 11 -4 27 -9 35 -9 13
-10 13 -9 0z"/>
<path d="M288 2943 c6 -2 18 -2 25 0 6 3 1 5 -13 5 -14 0 -19 -2 -12 -5z"/>
<path d="M338 2943 c6 -2 18 -2 25 0 6 3 1 5 -13 5 -14 0 -19 -2 -12 -5z"/>
<path d="M1803 2942 c-46 -2 -83 -6 -83 -11 0 -6 144 -5 190 2 37 6 -32 12
-107 9z"/>
<path d="M390 2930 c0 -5 4 -10 9 -10 6 0 13 5 16 10 3 6 -1 10 -9 10 -9 0
-16 -4 -16 -10z"/>
<path d="M1540 2930 c-52 -3 -90 -8 -84 -12 6 -4 36 -6 65 -3 30 2 80 4 112 4
31 1 57 4 57 9 0 8 -23 9 -150 2z"/>
<path d="M2008 2933 c7 -3 16 -2 19 1 4 3 -2 6 -13 5 -11 0 -14 -3 -6 -6z"/>
<path d="M2386 2928 c3 -5 10 -6 15 -3 13 9 11 12 -6 12 -8 0 -12 -4 -9 -9z"/>
<path d="M490 2911 c0 -15 11 -20 62 -25 34 -4 71 -12 81 -18 25 -13 34 -2 18
24 -7 11 -8 17 -2 14 5 -4 12 -2 16 4 3 5 -3 10 -14 10 -11 0 -23 -5 -26 -10
-4 -7 -13 -6 -27 1 -11 6 -36 9 -54 6 -19 -3 -34 -2 -34 4 0 5 -4 9 -10 9 -5
0 -10 -8 -10 -19z"/>
<path d="M1236 2922 c-3 -5 1 -9 9 -9 8 0 12 4 9 9 -3 4 -7 8 -9 8 -2 0 -6 -4
-9 -8z"/>
<path d="M1285 2920 c-13 -6 7 -9 63 -9 48 -1 82 3 82 9 0 12 -117 12 -145 0z"/>
<path d="M2451 2925 c8 -7 159 -8 166 -1 4 3 -33 6 -82 6 -49 0 -86 -2 -84 -5z"/>
<path d="M413 2912 c-13 -2 -23 -8 -23 -13 0 -12 47 -12 55 0 7 13 -5 18 -32
13z"/>
<path d="M680 2910 c0 -5 14 -7 31 -5 45 6 49 15 6 15 -20 0 -37 -4 -37 -10z"/>
<path d="M798 2913 c12 -2 30 -2 40 0 9 3 -1 5 -23 4 -22 0 -30 -2 -17 -4z"/>
<path d="M680 2867 c0 -7 9 -13 21 -14 17 -2 18 1 9 13 -15 17 -30 18 -30 1z"/>
<path d="M7854 2838 c-7 -11 18 -10 36 2 11 7 10 9 -8 7 -13 -1 -26 -5 -28 -9z"/>
<path d="M928 2823 c7 -3 16 -2 19 1 4 3 -2 6 -13 5 -11 0 -14 -3 -6 -6z"/>
<path d="M1245 2775 c21 -21 30 -23 41 -14 11 9 33 8 97 -4 58 -12 164 -18
367 -23 157 -3 363 -7 458 -9 106 -3 172 -1 172 5 0 11 -37 13 -195 10 -55 0
-143 4 -195 9 -52 5 -201 13 -330 17 -129 3 -238 8 -241 10 -4 2 -39 4 -78 5
-39 1 -74 5 -77 10 -3 5 -15 9 -26 9 -19 0 -19 -2 7 -25z"/>
<path d="M2380 2790 c0 -5 5 -10 10 -10 6 0 10 5 10 10 0 6 -4 10 -10 10 -5 0
-10 -4 -10 -10z"/>
<path d="M6875 2770 c-4 -6 3 -10 14 -10 25 0 27 6 6 13 -8 4 -17 2 -20 -3z"/>
<path d="M7196 2758 c3 -5 10 -6 15 -3 13 9 11 12 -6 12 -8 0 -12 -4 -9 -9z"/>
<path d="M7950 2760 c8 -5 20 -10 25 -10 6 0 3 5 -5 10 -8 5 -19 10 -25 10 -5
0 -3 -5 5 -10z"/>
<path d="M6130 2750 c8 -5 20 -10 25 -10 6 0 3 5 -5 10 -8 5 -19 10 -25 10 -5
0 -3 -5 5 -10z"/>
<path d="M7314 2749 c-3 -5 9 -9 25 -9 17 0 31 2 31 4 0 8 -51 13 -56 5z"/>
<path d="M5966 2734 c-22 -8 -60 -15 -85 -15 -25 -1 -64 -3 -86 -6 -36 -5 -38
-7 -17 -14 13 -5 27 -7 31 -5 3 2 33 5 66 7 33 1 76 8 95 14 28 10 44 10 80
-1 58 -17 57 -17 69 5 9 16 7 19 -12 18 -12 0 -40 2 -62 5 -24 4 -55 1 -79 -8z"/>
<path d="M1280 2724 c0 -12 7 -27 15 -34 19 -16 19 -3 0 30 -13 24 -14 24 -15
4z"/>
<path d="M2407 2734 c-3 -5 3 -20 14 -33 12 -15 19 -18 19 -9 0 20 -26 53 -33
42z"/>
<path d="M2528 2723 c6 -2 18 -2 25 0 6 3 1 5 -13 5 -14 0 -19 -2 -12 -5z"/>
<path d="M7865 2715 c61 -18 135 -17 135 2 0 10 -8 11 -27 6 -29 -8 -53 -8
-118 1 -37 6 -36 5 10 -9z"/>
<path d="M1440 2701 c0 -4 -11 -13 -24 -21 -14 -7 -22 -18 -20 -25 3 -7 7 -32
8 -56 2 -24 11 -71 19 -104 18 -68 22 -203 7 -255 -12 -41 -14 -144 -5 -260 8
-99 8 -124 1 -165 -5 -34 -14 -70 -16 -70 -9 0 -18 -139 -9 -150 12 -17 19
-84 9 -90 -5 -3 -7 -21 -5 -40 3 -21 0 -39 -9 -47 -17 -16 -9 -48 10 -41 9 3
14 -1 14 -11 0 -14 11 -17 74 -15 41 2 73 7 70 11 -3 4 24 7 61 5 45 -3 65 0
62 7 -3 8 15 12 54 12 46 0 62 4 73 19 13 18 14 18 20 -2 7 -22 36 -40 36 -22
0 6 10 9 23 8 28 -3 67 9 67 22 0 5 9 9 19 9 12 0 18 -7 17 -17 0 -10 5 -17
12 -15 7 1 21 -2 32 -8 11 -6 21 -6 24 -1 9 13 -21 34 -36 25 -10 -6 -11 -5
-1 7 14 17 6 59 -11 59 -6 0 -4 5 4 10 10 6 21 4 35 -8 19 -16 19 -16 6 1 -12
15 -11 17 8 17 18 0 20 -3 11 -19 -5 -11 -15 -23 -20 -26 -16 -10 -12 -28 5
-21 8 3 25 1 37 -4 16 -6 18 -9 7 -9 -9 -1 -20 -8 -23 -17 -8 -21 1 -31 15
-17 11 11 43 1 59 -18 6 -7 18 -8 103 -8 131 -1 183 15 144 44 -16 12 -17 17
-6 37 l13 23 7 -30 7 -30 1 29 c0 16 7 37 15 45 17 20 38 91 26 91 -5 0 -14
-17 -20 -39 -5 -21 -18 -45 -27 -52 -14 -12 -15 -11 -9 9 4 12 9 39 11 60 9
88 16 124 25 143 7 13 7 19 0 19 -5 0 -8 10 -6 23 3 12 5 26 5 30 1 5 4 6 9 4
10 -7 9 182 -1 211 -6 15 -4 28 3 37 6 8 9 19 5 25 -4 6 -9 26 -12 43 -2 18
-10 37 -17 42 -8 6 -10 18 -6 30 4 11 1 40 -6 65 -7 24 -10 47 -5 50 4 3 9 14
10 25 7 63 7 92 0 106 -5 9 -10 48 -13 88 -3 39 -10 81 -16 91 -6 11 -8 20 -5
20 3 0 -2 14 -10 31 -15 28 -66 57 -89 51 -5 -2 -16 0 -25 3 -9 4 -83 9 -166
11 -82 3 -181 6 -220 8 -197 10 -445 14 -445 7z m832 -693 c-7 -7 -12 -8 -12
-2 0 6 3 14 7 17 3 4 9 5 12 2 2 -3 -1 -11 -7 -17z m31 -28 c-31 -17 -43 -43
-15 -33 14 5 15 3 5 -8 -20 -21 -15 -30 14 -27 22 2 28 -1 29 -17 1 -11 5 -28
9 -37 5 -12 2 -20 -10 -24 -9 -4 -14 -12 -11 -19 9 -23 -68 -43 -91 -24 -11
10 -16 10 -23 0 -4 -8 -13 -10 -19 -7 -6 4 -9 12 -6 17 11 17 -4 9 -24 -12
-19 -20 -21 -21 -53 -5 -18 9 -34 13 -36 7 -4 -11 -42 -2 -42 10 0 5 -7 6 -15
3 -8 -3 -24 1 -37 10 -12 9 -17 16 -10 16 16 0 16 27 0 36 -7 4 -27 7 -44 6
-26 -2 -37 4 -54 28 -21 29 -50 41 -50 20 0 -16 -30 -12 -36 5 -4 8 -15 15
-26 15 -10 0 -17 4 -14 9 4 5 0 11 -6 14 -9 3 -7 7 6 12 10 5 21 3 25 -2 6
-10 45 -33 55 -33 3 0 6 6 6 14 0 21 23 34 45 25 12 -4 14 -8 6 -8 -10 -1 -8
-8 9 -26 23 -25 24 -25 42 -5 21 22 39 26 35 8 -1 -6 6 -13 15 -16 15 -3 15 0
5 22 -7 14 -18 24 -24 21 -8 -3 -12 4 -11 20 2 20 5 22 18 12 28 -22 36 -32
44 -52 7 -19 8 -19 21 -2 9 12 15 15 20 7 4 -6 13 -9 21 -6 7 3 29 -1 48 -9
26 -11 35 -21 38 -45 4 -27 2 -31 -14 -27 -21 6 -23 1 -5 -17 10 -11 15 -11
25 0 7 7 12 17 12 23 0 11 25 21 53 21 18 0 19 -2 7 -10 -10 -6 -11 -10 -2
-10 6 0 12 -4 12 -9 0 -5 -8 -8 -17 -7 -12 0 -19 -7 -21 -21 -3 -21 1 -23 36
-21 21 0 44 -2 50 -6 8 -4 10 -2 6 8 -3 8 -13 16 -22 18 -12 2 -17 15 -18 48
-2 67 -5 87 -11 73 -2 -7 -16 -13 -29 -13 -14 0 -23 4 -19 9 3 5 1 12 -5 16
-15 10 -12 32 5 32 10 0 13 -6 9 -19 -5 -15 -1 -18 25 -16 17 1 31 6 31 10 0
4 7 8 15 8 14 0 19 11 16 35 -1 6 6 1 14 -10 14 -18 13 -20 -12 -35z m-559
-55 c8 -8 21 -15 30 -15 8 0 18 -5 21 -11 4 -6 19 -7 36 -4 22 5 29 3 29 -9 0
-10 -9 -16 -24 -16 -25 0 -48 -20 -24 -20 8 -1 6 -6 -5 -15 -11 -7 -25 -11
-33 -8 -8 3 -14 -1 -14 -8 0 -12 -2 -12 -9 -1 -4 8 -14 13 -22 12 -8 -1 -25
-2 -39 -1 -23 2 -24 3 -8 15 17 12 17 14 -2 31 -16 14 -17 20 -8 27 7 4 18 8
23 8 6 0 3 -5 -5 -10 -13 -8 -12 -10 3 -10 11 0 15 -4 11 -12 -4 -7 -3 -8 5
-4 6 4 9 11 6 16 -3 4 1 11 7 14 10 5 10 7 1 12 -15 7 -17 24 -4 24 5 0 16 -7
25 -15z m466 5 c0 -5 -4 -10 -10 -10 -5 0 -10 5 -10 10 0 6 5 10 10 10 6 0 10
-4 10 -10z m-530 -71 c0 -5 -7 -9 -15 -9 -15 0 -20 12 -9 23 8 8 24 -1 24 -14z
m-60 -10 c0 -6 -4 -7 -10 -4 -5 3 -10 11 -10 16 0 6 5 7 10 4 6 -3 10 -11 10
-16z m245 -9 c3 -5 -1 -10 -9 -10 -9 0 -16 5 -16 10 0 6 4 10 9 10 6 0 13 -4
16 -10z m325 -147 c0 -3 -8 -15 -17 -26 -18 -19 -18 -20 13 -4 27 14 34 14 43
3 13 -16 -2 -32 -19 -21 -11 7 -40 -18 -40 -35 0 -6 10 -4 25 6 13 8 28 13 34
10 9 -6 23 23 20 40 -4 26 4 25 15 -1 12 -27 11 -34 -7 -67 -15 -27 -27 -38
-44 -38 -13 0 -23 5 -23 10 0 6 -9 19 -20 30 -12 12 -18 25 -15 30 3 5 1 11
-5 15 -6 4 -3 15 7 30 17 24 33 32 33 18z m-163 -25 c-3 -8 -6 -5 -6 6 -1 11
2 17 5 13 3 -3 4 -12 1 -19z m109 10 c4 -7 3 -8 -5 -4 -9 6 -11 -2 -9 -30 3
-42 -8 -50 -37 -28 -17 13 -18 16 -5 24 13 8 12 10 -3 10 -11 0 -17 5 -14 13
2 6 14 12 26 11 11 0 21 3 21 8 0 12 18 10 26 -4z m-76 -72 c-16 -16 -11 -24
10 -19 16 4 19 2 13 -12 -4 -13 -3 -16 5 -11 15 9 15 1 2 -25 -11 -20 -45 -25
-70 -9 -11 7 -11 10 -2 10 8 0 10 5 6 12 -5 8 -1 9 12 5 18 -7 18 -6 1 7 -15
12 -16 15 -2 26 9 7 14 19 11 26 -7 17 6 27 15 12 5 -7 4 -17 -1 -22z m-466
-2 c3 -8 -1 -14 -9 -14 -8 0 -15 2 -15 4 0 2 -3 12 -6 20 -4 12 -2 15 9 10 9
-3 18 -12 21 -20z m276 -19 c0 -22 -27 -30 -46 -14 -14 12 -14 14 3 20 29 12
43 10 43 -6z m284 -16 c-6 -11 -24 -2 -24 11 0 5 7 7 15 4 8 -4 12 -10 9 -15z
m-513 -26 c13 -16 12 -17 -3 -4 -10 7 -18 15 -18 17 0 8 8 3 21 -13z m516 -18
c-12 -7 -26 -10 -31 -7 -5 3 0 9 12 13 12 5 22 14 22 21 0 9 3 9 9 -1 7 -11 3
-18 -12 -26z"/>
<path d="M2010 1920 c0 -5 6 -10 14 -10 8 0 18 5 21 10 3 6 -3 10 -14 10 -12
0 -21 -4 -21 -10z"/>
<path d="M1929 1918 c-7 -25 -5 -36 7 -31 16 6 19 33 4 33 -5 0 -10 -1 -11 -2z"/>
<path d="M2076 1912 c-7 -12 22 -25 35 -16 5 3 9 11 8 17 0 8 -2 8 -6 -1 -4
-9 -8 -10 -18 -2 -8 7 -16 7 -19 2z"/>
<path d="M2285 1880 c3 -5 8 -10 11 -10 2 0 4 5 4 10 0 6 -5 10 -11 10 -5 0
-7 -4 -4 -10z"/>
<path d="M2050 1830 c0 -5 7 -7 15 -4 8 4 15 8 15 10 0 2 -7 4 -15 4 -8 0 -15
-4 -15 -10z"/>
<path d="M2008 1823 c6 -2 18 -2 25 0 6 3 1 5 -13 5 -14 0 -19 -2 -12 -5z"/>
<path d="M6984 2635 c6 -19 14 -35 18 -35 11 0 10 14 -2 44 -15 39 -29 31 -16
-9z"/>
<path d="M7121 2643 c0 -4 4 -17 9 -28 8 -19 9 -19 9 2 1 12 -3 25 -9 28 -5 3
-10 3 -9 -2z"/>
<path d="M7991 2614 c0 -11 3 -14 6 -6 3 7 2 16 -1 19 -3 4 -6 -2 -5 -13z"/>
<path d="M2466 2482 c-3 -6 -2 -13 4 -17 5 -3 8 -16 5 -28 -6 -27 7 -79 21
-84 8 -3 8 16 2 59 -10 64 -21 88 -32 70z"/>
<path d="M2490 2311 c0 -6 4 -13 10 -16 6 -3 7 1 4 9 -7 18 -14 21 -14 7z"/>
<path d="M7168 2224 c-2 -69 7 -162 17 -172 4 -4 9 59 7 98 -1 23 -14 105 -18
109 -2 2 -5 -13 -6 -35z"/>
<path d="M2475 1649 c-4 -12 -2 -26 4 -32 8 -8 11 -2 11 21 0 37 -6 41 -15 11z"/>
<path d="M1257 1597 c-11 -29 -9 -53 4 -40 6 6 9 21 7 34 -3 21 -4 22 -11 6z"/>
<path d="M7097 1513 c-4 -3 -7 -13 -7 -22 1 -13 3 -13 11 2 11 19 8 33 -4 20z"/>
<path d="M1971 1394 c0 -11 3 -14 6 -6 3 7 2 16 -1 19 -3 4 -6 -2 -5 -13z"/>
<path d="M525 1330 c-31 -4 -35 -7 -20 -12 24 -9 309 -9 301 -1 -3 3 -55 8
-116 9 -61 2 -114 5 -118 7 -4 1 -25 0 -47 -3z"/>
<path d="M63 1322 c-97 -5 -75 -22 27 -22 50 0 90 2 90 4 0 11 -62 21 -117 18z"/>
<path d="M455 1319 c-11 -17 1 -21 15 -4 8 9 8 15 2 15 -6 0 -14 -5 -17 -11z"/>
<path d="M825 1320 c-3 -6 5 -10 19 -10 32 0 42 15 11 18 -13 1 -27 -3 -30 -8z"/>
<path d="M945 1320 c-8 -13 15 -13 35 0 12 8 11 10 -7 10 -12 0 -25 -4 -28
-10z"/>
<path d="M1000 1320 c0 -5 5 -10 11 -10 5 0 7 5 4 10 -3 6 -8 10 -11 10 -2 0
-4 -4 -4 -10z"/>
<path d="M325 1310 c3 -5 10 -10 16 -10 5 0 9 5 9 10 0 6 -7 10 -16 10 -8 0
-12 -4 -9 -10z"/>
<path d="M365 1310 c3 -5 22 -9 41 -8 22 1 30 4 22 9 -18 12 -70 11 -63 -1z"/>
<path d="M908 1263 c7 -3 16 -2 19 1 4 3 -2 6 -13 5 -11 0 -14 -3 -6 -6z"/>
</g>
</svg>
